<svg width="223" height="59" viewBox="0 0 577 158" fill="none" xmlns="http://www.w3.org/2000/svg">
<path fill-rule="evenodd" clip-rule="evenodd" d="M68.7188 0L98.3091 17.3134L98.3079 28.1232L107.848 22.5433L137.438 39.8567V74.4826L130.274 78.6724L137.438 82.8618V117.489L107.848 134.802L98.3079 129.219L98.3092 140.032L68.7189 157.345L39.1287 140.032L39.1284 129.219L29.5903 134.802L0 117.489V82.8618L7.16188 78.6724L0 74.4826V39.8567L29.5903 22.5433L39.1284 28.1232L39.1285 17.3134L68.7188 0ZM67.1334 92.7246L59.1792 97.3777L59.1795 117.489L42.2928 127.368L42.2942 138.18L67.1334 152.713V92.7246ZM70.3004 152.713V92.7223L78.2567 97.3775L78.2572 117.488L95.1409 127.367L95.1424 138.18L70.3004 152.713ZM56.0125 87.6785L4.79132 116.586L29.5901 131.097L39.1282 125.515L39.1285 105.405L56.0125 95.5251V87.6785ZM81.4237 95.5251V87.6785L132.645 116.586L107.848 131.097L98.308 125.515L98.3093 105.405L81.4237 95.5251ZM56.0124 99.232L42.2942 107.259L42.2928 123.664L56.0136 115.637L56.0124 99.232ZM81.424 115.637L81.4237 99.232L95.1426 107.259L95.1411 123.662L81.424 115.637ZM48.8528 80.5242L29.5902 91.7967L10.3265 80.5242L3.16578 84.7135L3.16467 113.832L55.3978 84.3526L48.8528 80.5242ZM107.847 91.7967L127.109 80.5242L134.271 84.7135L134.269 113.83L82.0381 84.3526L88.5831 80.5242L107.847 91.7967ZM67.1338 81.402L59.1797 85.8905V93.6738L67.1338 89.0186V81.402ZM70.3004 89.0165V81.402L78.2566 85.8926V93.6717L70.3004 89.0165ZM29.5902 69.2543L13.4913 78.6729L29.5902 88.0921L45.6881 78.6708L29.5902 69.2543ZM91.7483 78.6708L107.848 69.2543L123.943 78.6729L107.848 88.0921L91.7483 78.6708ZM78.8168 74.8078L71.9718 78.672L78.8147 82.5342L85.4167 78.672L78.8168 74.8078ZM52.0199 78.672L58.6198 74.8078L65.4648 78.672L58.6219 82.5342L52.0199 78.672ZM3.16467 43.5117L3.16578 72.6299L10.3265 76.8196L29.5902 65.5475L48.8528 76.8175L55.3957 72.9891L3.16467 43.5117ZM82.0407 72.9891L134.27 43.5117L134.271 72.6299L127.11 76.8175L107.848 65.5476L88.5836 76.8175L82.0407 72.9891ZM78.2566 63.6715L70.3004 68.3267V75.9434L78.2566 71.4527V63.6715ZM59.1797 71.4527V63.6715L67.1338 68.3246V75.9412L59.1797 71.4527ZM107.848 26.2477L98.308 31.827L98.3091 51.94L81.4237 61.819V69.6656L132.643 40.7577L107.848 26.2477ZM4.79132 40.7577L29.5901 26.2477L39.1282 31.827L39.1283 51.9401L56.0125 61.8169V69.6635L4.79132 40.7577ZM67.1334 4.62891L42.2949 19.163L42.2928 29.972L59.1795 39.8536L59.1792 59.9641L67.1334 64.6172V4.62891ZM70.3003 64.617V4.62656L95.1422 19.1627L95.1408 29.9718L78.2571 39.8534L78.2565 59.9618L70.3003 64.617ZM42.2928 33.682L42.2949 50.0884L56.0124 58.114L56.0136 41.7102L42.2928 33.682ZM81.424 41.7102L95.1411 33.682L95.1424 50.0884L81.4237 58.114L81.424 41.7102Z" fill="url(#paint0_linear_98_38)"/>
<path d="M206.036 51.2847H196.039C194.221 51.2847 193.11 51.8906 193.11 54.2131V77.035H170.591V54.2131C170.591 51.8906 169.582 51.2847 167.663 51.2847H157.666C155.848 51.2847 154.737 51.8906 154.737 54.2131V114.802C154.737 117.125 155.848 117.731 157.666 117.731H167.663C169.582 117.731 170.591 117.125 170.591 114.802V91.9803H193.11V114.802C193.11 117.125 194.221 117.731 196.039 117.731H206.036C207.854 117.731 208.965 117.125 208.965 114.802V54.2131C208.965 51.8906 207.854 51.2847 206.036 51.2847Z" fill="black"/>
<path d="M265.774 103.593H236.691V54.2131C236.691 51.8906 235.58 51.2847 233.763 51.2847H223.765C221.948 51.2847 220.837 51.8906 220.837 54.2131V114.802C220.837 116.62 221.443 117.731 223.765 117.731H265.774C268.096 117.731 268.702 116.62 268.702 114.802V106.522C268.702 104.704 268.096 103.593 265.774 103.593Z" fill="black"/>
<path d="M313.433 51.2847H266.577C264.254 51.2847 263.649 52.3955 263.649 54.2131V62.5946C263.649 64.4123 264.254 65.5231 266.577 65.5231H282.128V114.802C282.128 117.125 283.239 117.731 285.057 117.731H295.054C296.872 117.731 297.982 117.125 297.982 114.802V65.5231H313.433C315.755 65.5231 316.361 64.4123 316.361 62.5946V54.2131C316.361 52.3955 315.755 51.2847 313.433 51.2847Z" fill="black"/>
<path d="M374.751 51.2847H364.753C362.936 51.2847 361.825 51.8906 361.825 54.2131V77.035H339.306V54.2131C339.306 51.8906 338.296 51.2847 336.378 51.2847H326.38C324.563 51.2847 323.452 51.8906 323.452 54.2131V114.802C323.452 117.125 324.563 117.731 326.38 117.731H336.378C338.296 117.731 339.306 117.125 339.306 114.802V91.9803H361.825V114.802C361.825 117.125 362.936 117.731 364.753 117.731H374.751C376.568 117.731 377.679 117.125 377.679 114.802V54.2131C377.679 51.8906 376.568 51.2847 374.751 51.2847Z" fill="black"/>
<path d="M508.739 77.9801C506.859 76.4992 505.174 74.632 503.529 73.9865L503.451 73.9485C503.059 73.7966 502.667 73.6448 502.237 73.4549C501.884 73.303 501.532 72.9613 501.218 72.6955C501.218 72.6955 500.317 71.8601 500.239 71.7841C499.377 70.9108 498.79 70.607 498.359 70.7589H498.32C498.124 70.7969 497.615 71.2525 497.145 71.8981L496.949 72.1259C496.753 72.3917 496.557 72.6955 496.361 72.9613C496.126 73.303 495.891 73.6448 495.656 73.9485C495.186 74.5941 494.716 75.3155 494.246 76.037V95.9277C494.246 101.965 490.094 105.383 483.592 105.383C477.09 105.383 473.016 101.927 473.016 95.9277V88.3713C472.938 88.3713 472.82 88.3713 472.742 88.3713C472.037 88.3713 471.332 88.3333 470.588 88.3333C468.159 88.2954 465.887 88.2574 463.419 87.9536H463.341C461.422 87.6878 459.463 87.422 457.505 87.46V98.0541C457.505 113.053 471.802 118.711 483.553 118.711C495.304 118.711 509.679 113.053 509.679 98.0541V78.8155C509.444 78.5497 509.091 78.2839 508.739 77.9801Z" fill="url(#paint1_linear_98_38)"/>
<path d="M458.694 77.299C460.036 77.1015 461.34 76.9041 462.605 76.6277C462.797 76.5882 462.95 76.5488 463.142 76.5093C463.295 76.4698 463.449 76.4303 463.602 76.4303C463.641 76.4303 463.679 76.4303 463.717 76.3908C463.756 76.3908 463.756 76.3908 463.794 76.3908C465.635 75.2063 467.053 75.0089 467.744 74.8904H467.859C469.546 74.693 471.118 75.0483 472.652 75.3642V54.2398C472.652 51.9497 471.578 51.3574 469.853 51.3574H460.304C458.579 51.3574 457.505 51.9497 457.505 54.2398V77.4569C457.85 77.4174 458.272 77.3385 458.694 77.299Z" fill="url(#paint2_linear_98_38)"/>
<path d="M574.039 51.3574H564.356C562.555 51.3574 561.435 51.9515 561.435 54.2488V88.866L540.068 54.7637C538.747 52.7833 538.067 51.3574 535.546 51.3574H526.063C523.743 51.3574 523.143 52.4664 523.143 54.2488V84.7468C523.303 85.9746 523.503 87.2025 523.663 88.4699C523.743 89.0244 523.783 89.5393 523.863 90.0146C524.143 92.5495 524.383 94.5695 525.143 97.2232C525.223 97.5005 525.303 97.7777 525.383 98.055C525.983 100.194 526.784 103.085 528.384 104.155C529.425 104.828 530.465 105.501 531.505 106.214C532.025 106.571 532.546 106.927 533.106 107.284C534.786 108.393 536.347 109.343 537.987 109.343C538.307 109.343 538.587 109.304 538.948 109.264C538.988 109.264 538.988 109.264 539.028 109.264V79.3997L560.394 113.621C561.715 115.601 562.395 117.027 564.916 117.027H574.079C576.399 117.027 577 115.918 577 114.136V54.2488C576.96 51.9515 575.839 51.3574 574.039 51.3574Z" fill="url(#paint3_linear_98_38)"/>
<path d="M430.227 93.8146C430.033 93.5368 430.033 93.1797 430.188 92.9019C430.498 92.3464 430.885 91.3148 430.963 90.8783L431.002 90.7592C431.04 90.4418 431.118 90.1244 431.195 89.8069C431.273 89.4895 431.35 89.2514 431.467 88.9737L431.505 88.8149C431.738 88.2197 432.009 87.5849 432.319 86.9897C432.512 86.5929 432.745 86.1961 432.939 85.8787C433.093 85.6009 433.248 85.3231 433.442 85.0851L433.636 84.8073C433.752 84.6486 433.829 84.4899 433.946 84.3312C434.023 84.2518 434.062 84.1724 434.101 84.0931C435.03 82.8233 435.689 82.0694 436.192 81.5139C436.425 81.2758 436.618 81.0377 436.773 80.8393C437.122 80.4029 437.277 80.1648 437.471 79.768C438.129 78.3395 438.943 77.1888 439.601 76.2762C439.679 76.1572 439.795 76.0381 439.872 75.9191C440.027 75.7604 440.144 75.562 440.26 75.3636L440.298 75.3239C440.376 75.2048 440.57 74.9668 440.763 74.6493C441.228 73.9748 441.809 73.1415 442.313 72.6257C442.7 72.1892 443.01 71.9908 443.359 71.9511C443.049 66.1579 441.073 61.0789 437.742 57.7458C433.636 53.5398 428.949 51.3574 418.335 51.3574H393.776C391.529 51.3574 391.025 52.4685 391.025 54.254V114.131C391.025 116.432 391.994 117.027 393.776 117.027H403.421C405.164 117.027 406.249 116.432 406.249 114.131V65.285H419.458C423.254 65.285 426.741 67.7451 427.864 71.475C429.646 77.3475 424.494 81.9107 418.955 81.9107H417.018C414.771 81.9107 414.19 83.0217 414.19 84.8073V92.8226C414.19 95.6398 414.384 96.7112 415.275 97.9016L425.811 114.011C427.167 116.114 428.329 117.027 430.692 117.027H442.158C444.017 117.027 444.482 115.242 443.63 113.813L430.227 93.8146Z" fill="url(#paint4_linear_98_38)"/>
<path d="M525.695 116.017C527.349 116.49 531.288 118.421 534.084 118.145C535.975 117.948 537.787 117.475 539.008 116.529C540.071 115.741 540.702 114.637 540.623 113.101C540.584 112.155 540.111 111.327 539.008 111.13C538.969 111.13 538.89 111.091 538.85 111.091C538.023 110.972 537.157 111.209 536.369 111.209C534.439 111.209 532.706 110.106 531.091 109.042C529.555 108.017 528.019 106.953 526.482 105.928C524.434 104.549 523.646 100.845 522.977 98.5985C522.071 95.3671 521.913 93.0815 521.48 89.7712C521.007 86.0275 520.417 82.2838 519.786 78.5401C519.708 78.1066 519.629 77.7125 519.668 77.279C519.708 76.6485 519.983 76.0968 520.101 75.4663C520.456 73.9294 519.905 72.2349 518.762 71.1315C518.683 71.0527 518.605 70.9738 518.526 70.895C515.651 68.5306 514.981 65.9297 512.933 62.9347C512.066 61.6737 511.121 60.452 510.176 59.2304C509.545 58.4422 508.876 57.6147 508.167 56.8659C508.049 56.7083 507.891 56.5507 507.733 56.3536C507.655 56.3142 507.615 56.2354 507.497 56.1172L504.661 66.4814L515.808 75.5451L517.974 87.0915L519.274 103.722L525.498 115.938H525.695V116.017Z" fill="url(#paint5_linear_98_38)"/>
<path d="M483.903 62.4207L481.106 73.77L473.701 86.8533H473.819C474.883 86.9321 476.025 87.0504 477.325 87.2474C477.719 87.4444 478.782 87.9173 480.161 87.7597C480.594 87.6809 481.736 87.5232 482.721 86.5775C483.154 86.144 483.391 85.7105 483.509 85.3952C485.478 82.7943 487.448 80.154 489.417 77.5531C489.654 77.2379 489.85 76.962 490.047 76.6468C491.229 74.9128 492.293 72.9031 493.553 71.1691C493.986 70.5386 494.498 69.7505 495.05 69.0017C495.168 68.8835 495.247 68.7653 495.326 68.647L491.938 63.2088L483.903 62.4207Z" fill="url(#paint6_linear_98_38)"/>
<path d="M500.88 50.9536C500.88 50.8748 502.692 50.6384 502.692 50.5595C502.81 50.0472 502.968 49.3773 503.046 48.668C505.016 48.5892 507.379 48.4315 509.191 47.604C511.042 46.7764 512.539 45.2395 514.508 44.609C515.375 44.3332 516.281 44.2543 517.069 43.9391C517.423 43.7814 517.699 43.5056 518.053 43.3086C518.526 43.0721 519.038 43.1115 519.55 42.9933C520.299 42.7963 521.205 42.2446 521.874 41.8505C522.583 41.4958 523.253 40.6288 523.056 39.8013C523.016 39.6042 522.938 39.486 522.859 39.3678C523.095 39.0525 523.174 38.6585 523.056 38.3826C522.938 38.1856 522.78 38.0673 522.701 38.0279C522.741 37.9885 522.977 37.5551 522.819 37.1216C522.741 36.9245 522.623 36.8063 522.544 36.7669C522.623 36.4516 522.504 36.097 522.229 35.8999C521.914 35.6635 521.52 35.7423 521.362 35.7817C520.85 35.8999 520.614 36.294 520.574 36.4122C520.062 36.6093 519.668 36.7275 519.393 36.8063C518.959 36.9245 518.762 36.9245 518.684 36.8457C518.605 36.7669 518.605 36.6487 518.684 36.4122C518.762 35.8605 518.959 35.5059 518.999 35.4665C519.078 35.3482 519.708 33.969 519.274 33.3779C519.235 33.3384 519.156 33.2202 519.038 33.2202C518.802 33.2202 518.802 33.6931 518.369 34.2842C518.172 34.5995 518.132 34.5207 517.935 34.7965C517.699 35.1906 517.699 35.4665 517.541 35.8605C517.463 36.1364 517.226 36.5305 516.793 36.9245C517.108 38.0674 516.872 39.0525 515.808 39.6831C514.942 40.1954 514.036 40.6682 513.13 41.0229C511.318 41.7717 509.861 41.9687 508.994 42.0869C507.812 42.2446 506.788 42.284 506.04 42.284C506.946 40.0377 507.182 38.1462 507.025 35.8211C507.064 35.3876 507.143 34.9936 507.182 34.5601C507.261 34.4419 507.379 34.3236 507.458 34.1266C507.576 33.8901 507.694 33.6537 507.773 33.4567C507.852 33.299 507.891 33.1414 507.97 32.9838C508.6 30.9346 508.167 29.0824 508.049 28.5307C507.773 27.4667 506.946 26.5998 506.67 25.5752C506.434 24.6294 506.434 22.5802 506.71 21.595C506.906 21.0039 507.261 20.4916 507.655 19.9793C508.049 19.467 508.443 18.9153 508.837 18.403C509.546 17.4572 510.845 18.0089 511.633 17.0631C511.909 16.7085 511.988 16.3538 512.027 15.9991C512.145 15.3292 512.263 14.344 512.263 13.0041C512.303 13.0041 512.736 13.083 513.012 12.7677C513.13 12.6101 513.13 12.4524 513.169 12.413C512.736 11.7037 512.263 10.9944 511.83 10.2456C511.988 10.1274 512.185 9.89095 512.263 9.53628C512.381 9.18162 512.342 8.86636 512.185 8.15702C512.106 7.72354 511.988 7.17183 511.791 6.5019C511.791 5.9502 511.751 4.9256 511.16 3.90101C510.53 2.837 509.585 2.16707 508.64 1.73359C507.891 1.41833 507.143 1.2607 506.552 1.18188L500.565 5.55612L501.786 14.4622L499.777 29.7524L493.79 39.5648L494.223 49.6138L500.88 50.9536Z" fill="url(#paint7_linear_98_38)"/>
<path d="M532.706 117.197C530.776 115.897 528.845 114.596 526.915 113.335C524.355 111.601 523.37 106.991 522.583 104.153C521.44 100.134 521.204 97.2569 520.731 93.1191C520.18 88.8237 519.51 84.5282 518.801 80.2328C518.723 79.8782 518.683 79.4841 518.604 79.1294C518.526 78.5777 518.447 78.0654 518.486 77.5137C518.526 77.0408 518.644 76.5679 518.801 76.1344C518.88 75.8586 518.959 75.5827 519.038 75.2675C519.274 74.2035 519.156 73.1395 518.801 72.1149C518.447 71.1297 517.856 70.2233 517.068 69.5534C513.523 66.6372 512.696 63.4846 510.254 59.8197C510.215 59.7409 510.136 59.6621 510.097 59.5833C509.466 58.6375 508.797 57.7311 508.127 56.8641C507.93 56.6277 507.773 56.3518 507.576 56.1154C507.142 55.6819 506.276 54.9332 505.409 54.145C505.134 53.9086 504.858 53.6327 504.621 53.3963C504.582 53.3569 504.543 53.2781 504.503 53.2781C503.873 52.7263 503.322 52.1746 502.967 51.7806C502.77 51.5835 502.652 51.4259 502.613 51.3077C502.573 51.2289 502.534 51.2289 502.573 51.1895C502.652 51.0318 502.652 50.8742 502.691 50.6772C502.731 50.5983 502.731 50.5589 502.77 50.4801C500.88 48.7462 496.941 45.2389 497.059 44.8843C497.295 44.0961 497.61 42.9927 497.768 41.6528C500.249 41.5346 503.164 41.3376 505.449 40.313C505.921 40.0765 506.394 39.8401 506.827 39.5642V39.5248C506.867 39.3278 506.906 39.0913 506.945 38.8943C506.985 38.579 507.024 38.2244 507.064 37.8697C507.064 37.7909 507.064 37.7515 507.064 37.7121C507.064 37.6333 507.064 37.5939 507.064 37.5544C507.103 36.8451 507.064 36.2146 506.985 35.6235C507.064 35.19 507.103 34.7959 507.182 34.3624C507.261 34.2442 507.379 34.126 507.418 33.929C507.536 33.6925 507.654 33.4561 507.733 33.259C507.812 33.1014 507.851 32.9438 507.93 32.7861C506.709 33.1014 505.724 33.259 505.055 33.3378C503.597 33.5349 502.337 33.5743 501.352 33.5743C501.943 32.195 502.534 30.264 502.652 27.8996C502.691 27.0326 502.652 26.2051 502.573 25.4957C502.652 24.9834 502.731 24.4317 502.81 23.9194C502.928 23.7224 503.046 23.5648 503.125 23.3677C504.818 20.2939 504.07 17.1807 503.834 16.3138C503.519 14.9739 502.455 13.8705 502.14 12.6095C501.825 11.4272 501.825 8.82634 502.179 7.68352C502.416 6.93478 502.849 6.30426 503.322 5.67374C503.834 5.00381 504.306 4.37329 504.818 3.70336C505.724 2.48173 507.3 3.19106 508.285 2.00884C508.403 1.85121 508.521 1.69358 508.6 1.49654C506.591 0.668979 503.991 0.550756 502.022 1.57535C500.249 2.44232 499.462 3.42751 498.437 5.04322C497.768 6.18604 497.453 6.77715 498.004 7.99878C498.319 7.36826 498.674 7.17122 499.068 7.01359C498.477 9.69331 498.674 12.373 500.88 14.0281C498.95 13.7523 496.901 13.4764 495.05 14.107C494.184 14.3828 493.435 14.8557 492.647 15.2892C492.253 15.5256 490.639 16.3138 489.299 16.8261C488.551 17.1413 487.763 17.4566 487.015 17.7719C483.982 18.9541 482.643 19.6634 481.382 20.4122C480.713 20.8062 480.082 21.2791 479.452 21.7914C479.216 21.9885 478.979 22.1855 478.861 22.4614C478.783 22.6584 478.783 22.8554 478.822 23.0919C478.861 23.2889 478.901 23.4859 478.94 23.6436C479.137 24.4317 479.373 25.2199 479.61 26.008C479.846 26.7962 480.043 27.5843 480.279 28.3725C480.555 29.2789 480.831 30.1852 481.106 31.0916C481.461 32.3132 481.855 33.5743 482.288 34.8353C482.446 35.2688 482.603 35.7023 482.761 36.1358C482.879 36.4904 483.037 36.8845 483.194 37.2392C483.352 37.5939 483.549 37.9485 483.746 38.3032C483.824 38.4214 483.942 38.5396 484.061 38.6579C484.258 38.8549 484.494 39.0125 484.691 39.249C484.77 39.3278 484.809 39.3672 484.848 39.4066C484.927 39.4854 485.006 39.6036 485.045 39.7219C485.045 39.8007 485.085 39.8401 485.085 39.8795C485.124 40.1553 485.006 40.4312 484.967 40.7071C484.927 40.9041 484.927 41.1405 484.967 41.377C485.006 41.4952 485.045 41.6134 485.085 41.6922C485.124 41.7711 485.164 41.8499 485.242 41.8893C485.439 42.0863 485.676 42.2045 485.912 42.2045C486.266 42.2045 486.621 41.8893 486.975 41.8105C487.369 41.7316 487.96 42.0075 488.393 42.3622C488.472 42.4016 488.512 42.4804 488.59 42.5592C488.708 42.6774 488.787 42.7957 488.827 42.9139C488.866 42.9533 488.866 42.9533 488.866 42.9927C489.181 43.8991 488.315 45.0813 487.881 45.7906C487.684 46.1059 487.487 46.4211 487.291 46.7364C486.109 48.628 484.927 50.6377 484.139 52.7658C483.233 55.0908 482.643 58.3616 483.391 60.7261C483.509 61.1202 484.1 61.9477 483.942 62.3024C483.746 62.7359 483.588 63.1299 483.391 63.5634C482.564 65.5338 481.776 67.3465 481.106 68.8834C480.791 69.6716 478.743 74.4005 478.586 74.834C477.916 76.4497 477.798 77.3561 476.853 78.026C476.301 78.3807 475.592 78.4595 474.962 78.4595C474.45 78.4595 473.977 78.4201 473.504 78.3413C471.181 78.026 468.896 77.1984 466.493 77.4743C465.902 77.5531 464.406 77.6713 462.436 78.9718C462.318 78.9718 462.239 79.0112 462.121 79.0506C461.806 79.1294 461.491 79.1688 461.136 79.2476C459.837 79.5235 458.458 79.7599 457.079 79.9176C454.795 80.2328 452.432 80.4299 450.147 80.5087C449.596 79.0112 448.808 78.2624 447.744 77.159C447.232 76.6467 446.76 76.2132 446.287 75.6615C446.011 75.3463 445.736 74.9916 445.499 74.5975C445.42 74.4793 445.381 74.4005 445.302 74.2823C445.223 74.1641 445.184 74.0458 445.105 73.9276C444.869 73.9276 444.633 73.967 444.357 73.967C444.199 73.967 444.002 74.1641 443.766 74.4005C443.057 75.1098 442.112 76.6073 441.797 77.0014C441.56 77.3167 441.324 77.5925 441.088 77.9078C440.3 78.9718 439.591 80.0358 439 81.2574C438.764 81.7303 438.606 82.0062 438.212 82.479C437.621 83.1884 436.834 83.8977 435.494 85.7105C435.337 85.9075 435.179 86.144 435.022 86.3804C434.785 86.7351 434.549 87.0503 434.352 87.4444C434.155 87.7991 433.919 88.1537 433.761 88.5084C433.446 89.0601 433.21 89.6512 432.974 90.2423C432.855 90.5576 432.777 90.8334 432.698 91.1487C432.619 91.464 432.54 91.7398 432.501 92.0551C432.343 92.9221 432.028 94.2619 432.54 94.9712C433.092 95.6412 434.116 95.6412 434.825 95.2471C435.258 95.0107 435.534 94.6166 435.81 94.1437C436.4 92.9615 436.243 93.1585 436.755 92.4492C437.582 91.4246 438.961 91.0305 440.221 90.6758C440.3 90.6758 440.339 90.6364 440.379 90.597C440.733 90.5182 441.088 90.3606 441.442 90.2423C441.915 90.0847 442.387 89.8877 442.821 89.6906C443.727 89.336 444.633 88.9025 445.539 88.5084C447.232 87.7203 448.926 86.9321 450.659 86.3804C451.329 86.144 452.589 85.8287 453.298 85.7499C456.095 85.3164 458.97 85.7105 461.767 86.1045C464.918 86.538 467.911 86.4592 471.062 86.538C471.456 86.538 471.85 86.5774 472.362 86.5774C472.795 86.5774 473.701 86.6562 473.82 86.6562C476.104 83.6613 478.389 80.6269 480.634 77.6319C482.485 75.2281 483.982 72.1937 485.833 69.6716C486.778 68.3711 487.803 66.4402 489.063 65.4944C489.378 65.2579 489.733 65.1397 490.048 65.1397C491.82 65.1397 493.632 68.0559 495.011 68.8046C495.326 68.4106 496.035 67.5436 496.547 67.4254C497.374 67.1101 498.241 67.78 499.028 68.6076C499.068 68.647 500.013 69.5928 500.013 69.5928C500.328 69.908 500.643 70.1445 500.919 70.3021C501.313 70.4992 501.707 70.6568 502.14 70.8144C504.07 71.6026 505.921 72.8636 507.536 74.1641C508.285 74.7552 508.915 75.3463 509.506 75.9768C509.742 76.2132 509.978 76.4891 510.175 76.7255C510.49 77.0408 510.766 77.3955 511.002 77.7107C510.924 79.2476 510.963 81.1786 511.318 83.3066C511.436 84.0554 511.593 84.8435 511.83 85.6711V85.7105C511.948 86.1045 512.066 86.538 512.184 86.9321C512.342 87.3656 512.499 87.7991 512.657 88.2326C512.696 88.3902 512.775 88.5084 512.814 88.666C512.893 88.7843 512.932 88.9025 512.972 89.0207C513.129 89.3754 513.287 89.6512 513.405 89.8877C513.523 90.1241 513.641 90.3211 513.76 90.5576C513.996 90.9911 514.272 91.5034 514.626 92.2915C514.666 92.3703 514.705 92.4886 514.744 92.6068C514.902 92.9221 515.059 93.2767 515.217 93.7102C516.832 97.7298 517.817 101.986 518.092 106.321V106.557C518.092 106.636 518.092 106.715 518.092 106.794C518.132 107.7 518.092 108.606 517.738 109.394C517.62 109.67 517.502 109.907 517.305 110.183C517.265 110.222 517.226 110.301 517.147 110.34C517.108 110.419 517.068 110.458 516.99 110.537L517.029 110.774V110.852C517.068 111.05 517.108 111.247 517.108 111.483V112.468C517.029 113.532 516.753 114.399 516.517 114.99C516.517 114.99 516.517 115.03 516.477 115.03C516.438 115.108 516.359 115.187 516.32 115.306C516.241 115.424 516.241 115.581 516.241 115.739V115.778C516.241 115.857 516.241 115.975 516.281 116.054C516.32 116.173 516.359 116.251 516.399 116.33C516.438 116.37 516.438 116.448 516.477 116.488C516.517 116.567 516.556 116.606 516.635 116.685C516.714 116.803 516.832 116.882 516.871 116.921C517.383 117.394 518.014 117.749 518.723 117.985C518.959 118.103 519.195 118.143 519.471 118.222C520.81 118.537 522.307 118.498 523.607 118.222C524.237 118.103 524.828 117.867 525.34 117.631C525.537 117.552 525.773 117.434 526.01 117.434C526.206 117.434 526.364 117.473 526.522 117.552C528.176 118.025 531.209 118.419 534.005 118.103C533.612 117.828 533.178 117.512 532.706 117.197ZM489.693 35.19C489.575 35.0718 489.457 34.993 489.378 34.9535C489.142 34.7171 489.024 34.5201 488.945 34.3624C488.945 34.323 488.905 34.2442 488.866 34.0866C488.669 33.4561 488.708 33.6925 488.236 32.7861C487.803 31.8009 487.566 30.4217 487.409 29.3577C487.251 28.3331 486.975 26.1263 486.975 25.4957C487.724 25.4169 488.433 25.3775 489.181 25.2987C489.181 26.0474 489.181 26.9144 489.26 27.8208C489.378 28.9636 489.575 30.0276 489.772 30.934C489.851 31.2492 489.93 31.5645 490.008 31.8009C489.93 32.9438 489.811 34.0866 489.693 35.19Z" fill="black"/>
<defs>
<linearGradient id="paint0_linear_98_38" x1="-68.7189" y1="78.6725" x2="87.1974" y2="214.863" gradientUnits="userSpaceOnUse">
<stop stop-color="#23BCBA"/>
<stop offset="1" stop-color="#45E994"/>
</linearGradient>
<linearGradient id="paint1_linear_98_38" x1="431.418" y1="94.7161" x2="479.24" y2="146.708" gradientUnits="userSpaceOnUse">
<stop stop-color="#23BCBA"/>
<stop offset="1" stop-color="#45E994"/>
</linearGradient>
<linearGradient id="paint2_linear_98_38" x1="449.931" y1="64.4072" x2="472.593" y2="77.5593" gradientUnits="userSpaceOnUse">
<stop stop-color="#23BCBA"/>
<stop offset="1" stop-color="#45E994"/>
</linearGradient>
<linearGradient id="paint3_linear_98_38" x1="496.214" y1="84.1923" x2="560.613" y2="137.007" gradientUnits="userSpaceOnUse">
<stop stop-color="#23BCBA"/>
<stop offset="1" stop-color="#45E994"/>
</linearGradient>
<linearGradient id="paint4_linear_98_38" x1="364.518" y1="84.1923" x2="428.711" y2="136.016" gradientUnits="userSpaceOnUse">
<stop stop-color="#23BCBA"/>
<stop offset="1" stop-color="#45E994"/>
</linearGradient>
<linearGradient id="paint5_linear_98_38" x1="486.677" y1="87.1443" x2="540.523" y2="118.355" gradientUnits="userSpaceOnUse">
<stop stop-color="#23BCBA"/>
<stop offset="1" stop-color="#45E994"/>
</linearGradient>
<linearGradient id="paint6_linear_98_38" x1="462.889" y1="75.106" x2="487.939" y2="96.4572" gradientUnits="userSpaceOnUse">
<stop stop-color="#23BCBA"/>
<stop offset="1" stop-color="#45E994"/>
</linearGradient>
<linearGradient id="paint7_linear_98_38" x1="479.13" y1="26.0678" x2="522.663" y2="51.7126" gradientUnits="userSpaceOnUse">
<stop stop-color="#23BCBA"/>
<stop offset="1" stop-color="#45E994"/>
</linearGradient>
</defs>
</svg>
